<svg width="128" height="128" viewBox="0 0 128 128" fill="none" xmlns="http://www.w3.org/2000/svg">
<path d="M44.59 4.20998C31.8008 8.64667 20.7714 17.0676 13.1219 28.236C5.47239 39.4044 1.60592 52.7314 2.09043 66.2596C2.57494 79.7879 7.38489 92.8042 15.8138 103.397C24.2427 113.989 35.8462 121.6 48.92 125.11C59.5192 127.845 70.6241 127.965 81.28 125.46C90.9332 123.292 99.8578 118.654 107.18 112C114.801 104.863 120.332 95.7848 123.18 85.74C126.274 74.8165 126.825 63.3294 124.79 52.16H65.27V76.85H99.74C99.0511 80.7879 97.5748 84.5463 95.3995 87.9003C93.2242 91.2543 90.3946 94.135 87.08 96.37C82.8714 99.1553 78.1263 101.029 73.15 101.87C68.1595 102.798 63.0405 102.798 58.05 101.87C52.9915 100.825 48.2064 98.7376 44 95.74C37.2415 90.9559 32.1668 84.1592 29.5 76.32C26.7889 68.3338 26.7889 59.6762 29.5 51.69C31.3983 46.0921 34.5363 40.9953 38.68 36.78C43.4219 31.8675 49.4253 28.3559 56.0316 26.6307C62.6378 24.9055 69.5916 25.0333 76.13 27C81.238 28.5672 85.9089 31.3068 89.77 35C93.6567 31.1333 97.5367 27.2566 101.41 23.37C103.41 21.28 105.59 19.29 107.56 17.15C101.665 11.6652 94.7466 7.39702 87.2 4.58998C73.457 -0.40012 58.4198 -0.534225 44.59 4.20998Z" fill="white"/>
</svg>
